
<svg id="visual" viewBox="0 0 900 600" width="900" height="600" xmlns="http://www.w3.org/2000/svg" xmlns:xlink="http://www.w3.org/1999/xlink" version="1.1"><rect x="0" y="0" width="900" height="600" fill="#c46363"></rect><path d="M694 0L568 0L568 86L515 86L515 171L658 171L658 257L508 257L508 343L492 343L492 429L697 429L697 514L689 514L689 600L0 600L0 514L0 514L0 429L0 429L0 343L0 343L0 257L0 257L0 171L0 171L0 86L0 86L0 0L0 0Z" fill="#ff8585"></path><path d="M321 0L467 0L467 86L462 86L462 171L369 171L369 257L428 257L428 343L321 343L321 429L405 429L405 514L431 514L431 600L0 600L0 514L0 514L0 429L0 429L0 343L0 343L0 257L0 257L0 171L0 171L0 86L0 86L0 0L0 0Z" fill="#ffa2a2"></path><path d="M316 0L160 0L160 86L219 86L219 171L276 171L276 257L259 257L259 343L179 343L179 429L171 429L171 514L209 514L209 600L0 600L0 514L0 514L0 429L0 429L0 343L0 343L0 257L0 257L0 171L0 171L0 86L0 86L0 0L0 0Z" fill="#ffbfbf"></path></svg>