
<svg id="visual" viewBox="0 0 900 600" width="900" height="600" xmlns="http://www.w3.org/2000/svg" xmlns:xlink="http://www.w3.org/1999/xlink" version="1.1"><rect x="0" y="0" width="900" height="600" fill="#a7b491"></rect><defs><linearGradient id="grad1_0" x1="33.3%" y1="0%" x2="100%" y2="100%"><stop offset="20%" stop-color="#a7b491" stop-opacity="1"></stop><stop offset="80%" stop-color="#a7b491" stop-opacity="1"></stop></linearGradient></defs><defs><linearGradient id="grad2_0" x1="0%" y1="0%" x2="66.7%" y2="100%"><stop offset="20%" stop-color="#a7b491" stop-opacity="1"></stop><stop offset="80%" stop-color="#a7b491" stop-opacity="1"></stop></linearGradient></defs><g transform="translate(900, 0)"><path d="M0 486.7C-65.4 482.7 -130.9 478.7 -186.3 449.7C-241.7 420.7 -287 366.8 -313.2 313.2C-339.5 259.7 -346.6 206.4 -372.3 154.2C-398.1 102.1 -442.4 51 -486.7 0L0 0Z" fill="#a1dfa9"></path></g><g transform="translate(0, 600)"><path d="M0 -486.7C52.3 -457.1 104.5 -427.5 169.9 -410.2C235.3 -392.9 313.9 -387.9 344.2 -344.2C374.5 -300.5 356.6 -218 372.3 -154.2C388 -90.4 437.4 -45.2 486.7 0L0 0Z" fill="#a1dfa9"></path></g></svg>