<svg id="visual" viewBox="0 0 900 900" width="900" height="900" xmlns="http://www.w3.org/2000/svg" xmlns:xlink="http://www.w3.org/1999/xlink" version="1.1"><path d="M0 298L82 127L164 307L245 298L327 190L409 325L491 163L573 109L655 343L736 244L818 406L900 352L900 0L818 0L736 0L655 0L573 0L491 0L409 0L327 0L245 0L164 0L82 0L0 0Z" fill="#9dc9bc"></path><path d="M0 397L82 226L164 388L245 379L327 280L409 559L491 379L573 262L655 460L736 478L818 496L900 523L900 350L818 404L736 242L655 341L573 107L491 161L409 323L327 188L245 296L164 305L82 125L0 296Z" fill="#83beaf"></path><path d="M0 649L82 622L164 685L245 640L327 703L409 712L491 703L573 613L655 667L736 667L818 658L900 703L900 521L818 494L736 476L655 458L573 260L491 377L409 557L327 278L245 377L164 386L82 224L0 395Z" fill="#66b3a2"></path><path d="M0 775L82 784L164 784L245 820L327 811L409 829L491 829L573 757L655 757L736 847L818 847L900 820L900 701L818 656L736 665L655 665L573 611L491 701L409 710L327 701L245 638L164 683L82 620L0 647Z" fill="#44a896"></path><path d="M0 901L82 901L164 901L245 901L327 901L409 901L491 901L573 901L655 901L736 901L818 901L900 901L900 818L818 845L736 845L655 755L573 755L491 827L409 827L327 809L245 818L164 782L82 782L0 773Z" fill="#039c8a"></path></svg>