<svg xmlns="http://www.w3.org/2000/svg" viewBox="0 0 1440 320"><path fill="#fefee0" fill-opacity="1" d="M0,160L34.3,181.3C68.6,203,137,245,206,250.7C274.3,256,343,224,411,197.3C480,171,549,149,617,165.3C685.7,181,754,235,823,224C891.4,213,960,139,1029,138.7C1097.1,139,1166,213,1234,224C1302.9,235,1371,181,1406,154.7L1440,128L1440,320L1405.7,320C1371.4,320,1303,320,1234,320C1165.7,320,1097,320,1029,320C960,320,891,320,823,320C754.3,320,686,320,617,320C548.6,320,480,320,411,320C342.9,320,274,320,206,320C137.1,320,69,320,34,320L0,320Z"></path></svg>
